<svg width="186" height="186" viewBox="0 0 186 186" xmlns="http://www.w3.org/2000/svg"><title>icon</title><path d="M91.71 63.054h-6.062c-.908 0-1.81-.154-2.665-.457-3.868-1.366-6.53-2.298-7.986-2.793-4.77-1.622-8.933-2.995-12.753-3.216-9.188-.532-48.174-2.483-48.963.523.184 1.08-.247 3.572 0 4.747.447 2.12 2.123 4.976 3.48 8.765.565 1.573 1.33 4.29 2.296 8.15.438 4.872 4.4 12.146 11.884 21.82.854 1.104 1.983 1.966 3.274 2.5 4.06 1.676 6.73 2.628 8.007 2.857 9.014 1.615 15.48.536 18.506 0 2.726-.484 7.73-1.324 12.892-4.85 1.367-.933 3.648-3.195 6.844-6.787.408-.458.763-.963 1.055-1.502 2.556-4.71 4.13-7.814 4.724-9.316 2.342-5.923 3.888-9.05 5.47-9.355 1.58.304 3.126 3.43 5.466 9.354.594 1.502 2.17 4.607 4.724 9.317.293.54.647 1.045 1.056 1.503 3.196 3.592 5.477 5.854 6.844 6.787 5.162 3.526 10.166 4.366 12.892 4.85 3.025.536 9.492 1.615 18.504 0 1.278-.23 3.947-1.182 8.008-2.86 1.29-.532 2.42-1.394 3.274-2.498 7.485-9.674 11.446-16.948 11.884-21.82.965-3.86 1.73-6.577 2.294-8.15 1.358-3.79 3.034-6.644 3.48-8.765.25-1.175-.182-3.667 0-4.746-.788-3.005-39.774-1.054-48.962-.522-3.82.22-7.985 1.594-12.753 3.216-1.455.495-4.117 1.427-7.985 2.793-.856.303-1.757.457-2.665.457h-6.06zM93 186c-51.362 0-93-41.638-93-93S41.638 0 93 0s93 41.638 93 93-41.638 93-93 93zm-1.476-42.986c23.472 0 43.704-17.26 43.704-24.716 0-4.177-5.02 1.94-14.465 7.063-7.414 4.024-17.95 6.972-28.272 6.972-7.56 0-15.763-.67-22.22-3.354-13.587-5.65-22.45-15.1-22.45-10.046 0 7.455 20.232 24.082 43.704 24.082z" fill="#000000" fill-rule="evenodd"/></svg>